<svg width="40" height="40" viewBox="0 0 40 40" fill="black" xmlns="http://www.w3.org/2000/svg">
<path d="M20 2.5C10.3359 2.5 2.5 10.3359 2.5 20C2.5 29.6641 10.3359 37.5 20 37.5C29.6641 37.5 37.5 29.6641 37.5 20C37.5 10.3359 29.6641 2.5 20 2.5ZM20 34.5312C11.9766 34.5312 5.46875 28.0234 5.46875 20C5.46875 11.9766 11.9766 5.46875 20 5.46875C28.0234 5.46875 34.5312 11.9766 34.5312 20C34.5312 28.0234 28.0234 34.5312 20 34.5312Z" />
<path d="M26.8242 24.9453L21.2539 20.918V11.25C21.2539 11.0781 21.1133 10.9375 20.9414 10.9375H19.0625C18.8906 10.9375 18.75 11.0781 18.75 11.25V22.0078C18.75 22.1094 18.7969 22.2031 18.8789 22.2617L25.3398 26.9727C25.4805 27.0742 25.6758 27.043 25.7773 26.9062L26.8945 25.3828C26.9961 25.2383 26.9648 25.043 26.8242 24.9453Z" />
</svg>
