<svg width="40" height="40" viewBox="0 0 40 40" fill="none" xmlns="http://www.w3.org/2000/svg">
<path d="M35.5555 6.66675H4.44439C3.85502 6.66675 3.28979 6.90087 2.87304 7.31762C2.45629 7.73437 2.22217 8.2996 2.22217 8.88897V31.1112C2.22217 31.7006 2.45629 32.2658 2.87304 32.6825C3.28979 33.0993 3.85502 33.3334 4.44439 33.3334H35.5555C36.1449 33.3334 36.7101 33.0993 37.1269 32.6825C37.5436 32.2658 37.7777 31.7006 37.7777 31.1112V8.88897C37.7777 8.2996 37.5436 7.73437 37.1269 7.31762C36.7101 6.90087 36.1449 6.66675 35.5555 6.66675ZM33.8444 31.1112H6.28883L14.0666 23.0667L12.4666 21.5223L4.44439 29.8223V10.5779L18.2555 24.3223C18.6719 24.7362 19.2351 24.9685 19.8222 24.9685C20.4092 24.9685 20.9725 24.7362 21.3888 24.3223L35.5555 10.2334V29.6779L27.3777 21.5001L25.8111 23.0667L33.8444 31.1112ZM5.89995 8.88897H33.7555L19.8222 22.7445L5.89995 8.88897Z" fill="#010101"/>
</svg>
