<svg width="40" height="40" viewBox="0 0 40 40" fill="black" xmlns="http://www.w3.org/2000/svg">
<path d="M18.75 2.5H21.25V8.7H18.75V2.5Z" />
<path d="M27.1088 11.1125L31.4925 6.72876L33.26 8.49751L28.8763 12.8813L27.1088 11.1125Z" />
<path d="M31.3 18.75H37.5V21.25H31.3V18.75Z" />
<path d="M27.1162 28.8788L28.8837 27.1113L33.2675 31.4963L31.5 33.2626L27.1162 28.8788Z" />
<path d="M18.75 31.3H21.25V37.5H18.75V31.3Z" />
<path d="M6.74622 31.5024L11.13 27.1187L12.8975 28.8862L8.51372 33.2712L6.74622 31.5024Z" />
<path d="M2.5 18.75H8.7V21.25H2.5V18.75Z" />
<path d="M6.73755 8.5038L8.50755 6.73755L12.8913 11.1225L11.1238 12.89L6.73755 8.5038Z" />
<path d="M20 15C20.9889 15 21.9556 15.2932 22.7779 15.8427C23.6001 16.3921 24.241 17.173 24.6194 18.0866C24.9978 19.0002 25.0969 20.0055 24.9039 20.9755C24.711 21.9454 24.2348 22.8363 23.5355 23.5355C22.8363 24.2348 21.9454 24.711 20.9755 24.9039C20.0055 25.0969 19.0002 24.9978 18.0866 24.6194C17.173 24.241 16.3921 23.6001 15.8427 22.7779C15.2932 21.9556 15 20.9889 15 20C15 18.6739 15.5268 17.4021 16.4645 16.4645C17.4022 15.5268 18.6739 15 20 15ZM20 12.5C18.5166 12.5 17.0666 12.9399 15.8332 13.764C14.5999 14.5881 13.6386 15.7594 13.0709 17.1299C12.5032 18.5003 12.3547 20.0083 12.6441 21.4632C12.9335 22.918 13.6478 24.2544 14.6967 25.3033C15.7456 26.3522 17.082 27.0665 18.5368 27.3559C19.9917 27.6453 21.4997 27.4968 22.8701 26.9291C24.2406 26.3614 25.4119 25.4001 26.236 24.1668C27.0601 22.9334 27.5 21.4834 27.5 20C27.5 18.0109 26.7098 16.1032 25.3033 14.6967C23.8968 13.2902 21.9891 12.5 20 12.5Z" />
</svg>
