<svg width="40" height="40" viewBox="0 0 40 40" fill="black" xmlns="http://www.w3.org/2000/svg">
<path fill-rule="evenodd" clip-rule="evenodd" d="M36.325 26.3252C33.161 27.5528 29.7083 27.8338 26.3873 27.1342C23.0664 26.4345 20.0206 24.7843 17.6207 22.3844C15.2209 19.9846 13.5707 16.9388 12.871 13.6179C12.1714 10.2969 12.4524 6.84422 13.68 3.68018C9.87946 5.1613 6.71534 7.92297 4.73396 11.4884C2.75259 15.0538 2.07833 19.1991 2.8276 23.2087C3.57688 27.2183 5.70265 30.8404 8.8379 33.4496C11.9731 36.0589 15.9211 37.4915 20 37.5002C23.5307 37.5011 26.9791 36.4344 29.8926 34.44C32.806 32.4457 35.0483 29.6169 36.325 26.3252Z" />
</svg>
