<svg width="40" height="40" viewBox="0 0 40 40" fill="black" xmlns="http://www.w3.org/2000/svg">
<path d="M20 1.06665L13.7167 4.99998H8.33337V8.33332L4.95004 10.4833C3.98337 11.0667 3.33337 12.1167 3.33337 13.3333V30C3.33337 30.884 3.68456 31.7319 4.30968 32.357C4.93481 32.9821 5.78265 33.3333 6.66671 33.3333H33.3334C35.1834 33.3333 36.6667 31.85 36.6667 30V13.3333C36.6667 12.1167 36.0167 11.0667 35.05 10.4833L31.6667 8.33332V4.99998H26.2834L20 1.06665ZM11.6667 8.33332H28.3334V16.4667L20 21.6667L11.6667 16.4667V8.33332ZM13.3334 9.99998V12.5H26.6667V9.99998H13.3334ZM8.33337 12.3V14.3833L6.66671 13.3333L8.33337 12.3ZM31.6667 12.3L33.3334 13.3333L31.6667 14.3833V12.3ZM13.3334 14.1667V16.6667H26.6667V14.1667H13.3334Z" />
</svg>
