<svg width="40" height="40" viewBox="0 0 40 40" fill="black" xmlns="http://www.w3.org/2000/svg">
<path d="M4.80005 4.80005V9.53405C18.9721 9.53405 30.4601 21.0261 30.4601 35.1981H35.1981C35.1981 18.4101 21.5881 4.80005 4.80005 4.80005ZM4.80005 14.274V19.012C6.92579 19.012 9.03072 19.4308 10.9946 20.2443C12.9585 21.0579 14.743 22.2503 16.246 23.7535C17.749 25.2567 18.9412 27.0413 19.7545 29.0053C20.5678 30.9693 20.9863 33.0743 20.9861 35.2001H25.7221C25.7221 23.6441 16.3541 14.274 4.80005 14.274V14.274ZM9.33805 26.1181C8.1502 26.143 7.01941 26.6324 6.18815 27.4812C5.3569 28.3301 4.89135 29.4709 4.89135 30.6591C4.89135 31.8472 5.3569 32.988 6.18815 33.8369C7.01941 34.6857 8.1502 35.1751 9.33805 35.2001C11.846 35.2001 13.8761 33.1681 13.8761 30.6601C13.8761 28.1521 11.846 26.1181 9.33805 26.1181Z" />
</svg>
