<svg width="40" height="40" viewBox="0 0 40 40" fill="black" xmlns="http://www.w3.org/2000/svg">
<path d="M37.5 35.7375L28.0625 26.25C30.3187 23.5277 31.4395 20.041 31.1922 16.514C30.9448 12.987 29.3484 9.69081 26.7343 7.31008C24.1203 4.92936 20.6897 3.64708 17.155 3.72958C13.6203 3.81208 10.2532 5.25302 7.75312 7.75312C5.25302 10.2532 3.81208 13.6203 3.72958 17.155C3.64708 20.6897 4.92936 24.1203 7.31008 26.7343C9.69081 29.3484 12.987 30.9448 16.514 31.1922C20.041 31.4395 23.5277 30.3187 26.25 28.0625L35.7375 37.5L37.5 35.7375ZM6.24997 17.5C6.24997 15.2749 6.90978 13.0999 8.14594 11.2498C9.38211 9.39976 11.1391 7.95782 13.1948 7.10633C15.2505 6.25484 17.5125 6.03206 19.6947 6.46614C21.877 6.90022 23.8816 7.97168 25.4549 9.54502C27.0283 11.1184 28.0997 13.1229 28.5338 15.3052C28.9679 17.4875 28.7451 19.7495 27.8936 21.8052C27.0421 23.8608 25.6002 25.6178 23.7501 26.854C21.9001 28.0902 19.725 28.75 17.5 28.75C14.5163 28.75 11.6548 27.5647 9.54502 25.4549C7.43524 23.3451 6.24997 20.4837 6.24997 17.5Z" />
</svg>
