<svg width="40" height="40" viewBox="0 0 40 40" fill="none" xmlns="http://www.w3.org/2000/svg">
<path d="M36.25 9.93361C35.0547 10.4492 33.7539 10.8203 32.4141 10.9649C33.8051 10.1384 34.8468 8.83283 35.3437 7.29298C34.0384 8.0695 32.6084 8.61401 31.1172 8.90236C30.4939 8.23606 29.7401 7.70525 28.9027 7.34301C28.0654 6.98078 27.1624 6.79488 26.25 6.79689C22.5586 6.79689 19.5898 9.78908 19.5898 13.461C19.5898 13.9766 19.6523 14.4922 19.7539 14.9883C14.2266 14.6992 9.29687 12.0586 6.01953 8.01564C5.42236 9.03562 5.10943 10.197 5.11328 11.3789C5.11328 13.6914 6.28906 15.7305 8.08203 16.9297C7.02541 16.8881 5.99353 16.5977 5.07031 16.082V16.1641C5.07031 19.4024 7.35938 22.086 10.4102 22.7031C9.83734 22.8519 9.24807 22.9281 8.65625 22.9297C8.22266 22.9297 7.8125 22.8867 7.39844 22.8281C8.24219 25.4688 10.6992 27.3867 13.625 27.4492C11.3359 29.2422 8.46875 30.2969 5.35547 30.2969C4.79688 30.2969 4.28125 30.2774 3.74609 30.2149C6.69922 32.1094 10.2031 33.2031 13.9766 33.2031C26.2266 33.2031 32.9297 23.0547 32.9297 14.2461C32.9297 13.957 32.9297 13.668 32.9102 13.3789C34.207 12.4297 35.3437 11.2539 36.25 9.93361Z" />
</svg>
