<svg width="40" height="40" viewBox="0 0 40 40" fill="none" xmlns="http://www.w3.org/2000/svg">
<g clip-path="url(#clip0)">
<path d="M30.9375 21.9275C29.1012 21.9275 27.3762 21.1525 25.8137 19.8838L26.1912 18.0938L26.2037 18.0225C26.5487 16.1213 27.6163 12.925 30.9363 12.925C32.131 12.9254 33.2766 13.4001 34.1214 14.2449C34.9662 15.0897 35.4409 16.2353 35.4412 17.43C35.4393 18.6237 34.9638 19.7677 34.1192 20.6112C33.2746 21.4546 32.1299 21.9285 30.9363 21.9288L30.9375 21.9275ZM30.9375 8.36629C26.7062 8.36629 23.4175 11.1138 22.0837 15.6388C20.0525 12.585 18.5025 8.91379 17.605 5.82129H13.0475V17.6763C13.0452 18.8014 12.5972 19.8798 11.8016 20.6754C11.006 21.471 9.92763 21.919 8.8025 21.9213C7.67767 21.918 6.59985 21.4697 5.80447 20.6743C5.0091 19.8789 4.5608 18.8011 4.5575 17.6763V5.82129H0V17.6763C0 22.5325 3.95125 26.5113 8.8025 26.5113C13.6587 26.5113 17.605 22.5338 17.605 17.6763V15.69C18.49 17.5325 19.5775 19.4075 20.8988 21.0613L18.1062 34.18H22.7675L24.7925 24.6613C26.5637 25.7938 28.6012 26.51 30.9387 26.51C35.9388 26.51 40.0013 22.4213 40.0013 17.4275C40.0013 12.4275 35.9388 8.36504 30.9387 8.36504L30.9375 8.36629Z" fill="black"/>
</g>
<defs>
<clipPath id="clip0">
<rect width="40" height="40" fill="white"/>
</clipPath>
</defs>
</svg>
